# Blender v3.2.1 OBJ File: 'city.blend'
# www.blender.org
mtllib city.mtl
o 立方体.007
v -11.904414 0.000817 -2.136904
v -11.904414 0.164755 -2.136904
v -11.904414 0.000817 -2.313072
v -11.904414 0.164755 -2.313072
v 11.904414 0.000817 -2.136904
v 11.904414 0.164755 -2.136904
v 11.904414 0.000817 -2.313072
v 11.904414 0.164755 -2.313072
v -9.858427 2.026022 -9.372605
v -9.858427 0.026022 -9.372605
v -9.858427 2.026022 -7.372605
v -9.858427 0.026022 -7.372605
v -11.858427 2.026022 -9.372605
v -11.858427 0.026022 -9.372605
v -11.858427 2.026022 -7.372605
v -11.858427 0.026022 -7.372605
v -11.857516 -0.000000 9.368837
v 11.857516 -0.000000 9.368837
v -11.857516 -0.000000 -9.368836
v 11.857516 -0.000000 -9.368836
v -7.515629 0.019278 -7.382271
v -7.515629 2.685403 -7.382271
v -7.515629 0.019278 -9.382272
v -7.515629 2.685403 -9.382272
v -5.515629 0.019278 -7.382271
v -5.515629 2.685403 -7.382271
v -5.515629 0.019278 -9.382272
v -5.515629 2.685403 -9.382272
v -9.858427 2.026022 -7.269254
v -9.858427 0.026022 -7.269254
v -9.858427 2.026022 -5.269254
v -9.858427 0.026022 -5.269254
v -11.858427 2.026022 -7.269254
v -11.858427 0.026022 -7.269254
v -11.858427 2.026022 -5.269254
v -11.858427 0.026022 -5.269254
v -9.858427 2.026022 7.339595
v -9.858427 0.026022 7.339595
v -9.858427 2.026022 9.339594
v -9.858427 0.026022 9.339594
v -11.858427 2.026022 7.339595
v -11.858427 0.026022 7.339595
v -11.858427 2.026022 9.339594
v -11.858427 0.026022 9.339594
v 9.826116 0.025811 -7.382271
v 9.826116 3.877856 -7.382271
v 9.826116 0.025811 -9.382272
v 9.826116 3.877856 -9.382272
v 11.826115 0.025811 -7.382271
v 11.826115 3.877856 -7.382271
v 11.826115 0.025811 -9.382272
v 11.826115 3.877856 -9.382272
v 9.852943 0.025811 9.363458
v 9.852943 3.877856 9.363458
v 9.852943 0.025811 7.363458
v 9.852943 3.877856 7.363458
v 11.852942 0.025811 9.363458
v 11.852942 3.877856 9.363458
v 11.852942 0.025811 7.363458
v 11.852942 3.877856 7.363458
v -3.420896 -0.027794 9.366829
v -3.420896 4.219770 9.366829
v -3.420896 -0.027794 5.412360
v -3.420896 4.219770 5.412360
v 4.059714 -0.027794 9.366829
v 4.059714 4.219770 9.366829
v 4.059714 -0.027794 5.412360
v 4.059714 4.219770 5.412360
v 1.274818 6.214705 7.339595
v 1.274818 4.214705 7.339595
v 1.274818 6.214705 9.339594
v 1.274818 4.214705 9.339594
v -0.725182 6.214705 7.339595
v -0.725182 4.214705 7.339595
v -0.725182 6.214705 9.339594
v -0.725182 4.214705 9.339594
v -3.066352 4.670979 8.898659
v -3.066352 4.248646 8.898659
v -3.066352 4.670979 9.374875
v -3.066352 4.248646 9.374875
v -3.443258 4.670979 8.898659
v -3.443258 4.248646 8.898659
v -3.443258 4.670979 9.374875
v -3.443258 4.248646 9.374875
v 1.274818 6.214705 7.339595
v 1.274818 4.214705 7.339595
v 1.274818 6.214705 9.339594
v 1.274818 4.214705 9.339594
v -0.725182 6.214705 7.339595
v -0.725182 4.214705 7.339595
v -0.725182 6.214705 9.339594
v -0.725182 4.214705 9.339594
v 4.075929 4.670979 5.435994
v 4.075929 4.248646 5.435994
v 4.075929 4.670979 5.912210
v 4.075929 4.248646 5.912210
v 3.699023 4.670979 5.435994
v 3.699023 4.248646 5.435994
v 3.699023 4.670979 5.912210
v 3.699023 4.248646 5.912210
v 4.075929 4.670979 8.898659
v 4.075929 4.248646 8.898659
v 4.075929 4.670979 9.374875
v 4.075929 4.248646 9.374875
v 3.699023 4.670979 8.898659
v 3.699023 4.248646 8.898659
v 3.699023 4.670979 9.374875
v 3.699023 4.248646 9.374875
v -3.066352 4.670979 5.413194
v -3.066352 4.248646 5.413194
v -3.066352 4.670979 5.889411
v -3.066352 4.248646 5.889411
v -3.443258 4.670979 5.413194
v -3.443258 4.248646 5.413194
v -3.443258 4.670979 5.889411
v -3.443258 4.248646 5.889411
v 4.121023 -0.000192 -3.811472
v 4.121023 0.146254 -3.811472
v 4.121023 -0.000192 -9.343397
v 4.121023 0.146254 -9.343397
v 9.792338 -0.000192 -3.811472
v 9.792338 0.146254 -3.811472
v 9.792338 -0.000192 -9.343397
v 9.792338 0.146254 -9.343397
v 5.598350 0.496038 -9.323394
v 5.598350 0.073704 -9.323394
v 5.598350 0.496038 -8.847178
v 5.598350 0.073704 -8.847178
v 4.168881 0.496038 -9.323394
v 4.168881 0.073704 -9.323394
v 4.168881 0.496038 -8.847178
v 4.168881 0.073704 -8.847178
v 9.714444 0.496038 -9.323394
v 9.714444 0.073704 -9.323394
v 9.714444 0.496038 -8.847178
v 9.714444 0.073704 -8.847178
v 8.284977 0.496038 -9.323394
v 8.284977 0.073704 -9.323394
v 8.284977 0.496038 -8.847178
v 8.284977 0.073704 -8.847178
v 7.696592 0.496038 -9.323394
v 7.696592 0.073704 -9.323394
v 7.696592 0.496038 -8.847178
v 7.696592 0.073704 -8.847178
v 6.267124 0.496038 -9.323394
v 6.267124 0.073704 -9.323394
v 6.267124 0.496038 -8.847178
v 6.267124 0.073704 -8.847178
v -11.904413 0.000817 2.586225
v -11.904413 0.164755 2.586225
v -11.904413 0.000817 2.410056
v -11.904413 0.164755 2.410056
v 11.904413 0.000817 2.586225
v 11.904413 0.164755 2.586225
v 11.904413 0.000817 2.410056
v 11.904413 0.164755 2.410056
v -11.904413 0.000817 2.586225
v -11.904413 0.164755 2.586225
v -11.904413 0.000817 2.410056
v -11.904413 0.164755 2.410056
v 11.904413 0.000817 2.586225
v 11.904413 0.164755 2.586225
v 11.904413 0.000817 2.410056
v 11.904413 0.164755 2.410056
v -5.019867 0.025811 -7.382271
v -5.019867 3.877856 -7.382271
v -5.019867 0.025811 -9.382272
v -5.019867 3.877856 -9.382272
v 3.711705 0.025811 -7.382271
v 3.711705 3.877856 -7.382271
v 3.711705 0.025811 -9.382272
v 3.711705 3.877856 -9.382272
v -9.644026 0.025811 -7.382271
v -9.644026 3.877856 -7.382271
v -9.644026 0.025811 -9.382272
v -9.644026 3.877856 -9.382272
v -7.644026 0.025811 -7.382271
v -7.644026 3.877856 -7.382271
v -7.644026 0.025811 -9.382272
v -7.644026 3.877856 -9.382272
v -5.019867 0.025811 -3.863155
v -5.019867 3.877856 -3.863155
v -5.019867 0.025811 -5.863155
v -5.019867 3.877856 -5.863155
v 3.711705 0.025811 -3.863155
v 3.711705 3.877856 -3.863155
v 3.711705 0.025811 -5.863155
v 3.711705 3.877856 -5.863155
v -5.547801 2.026022 -7.269254
v -5.547801 0.026022 -7.269254
v -5.547801 2.026022 -5.269254
v -5.547801 0.026022 -5.269254
v -7.547800 2.026022 -7.269254
v -7.547800 0.026022 -7.269254
v -7.547800 2.026022 -5.269254
v -7.547800 0.026022 -5.269254
v 9.631077 2.026022 7.339595
v 9.631077 0.026022 7.339595
v 9.631077 2.026022 9.339594
v 9.631077 0.026022 9.339594
v 7.631078 2.026022 7.339595
v 7.631078 0.026022 7.339595
v 7.631078 2.026022 9.339594
v 7.631078 0.026022 9.339594
v 5.397569 0.025811 9.363458
v 5.397569 3.877856 9.363458
v 5.397569 0.025811 7.363458
v 5.397569 3.877856 7.363458
v 7.397568 0.025811 9.363458
v 7.397568 3.877856 9.363458
v 7.397568 0.025811 7.363458
v 7.397568 3.877856 7.363458
v -9.237568 0.025811 9.363458
v -9.237568 3.877856 9.363458
v -9.237568 0.025811 7.363458
v -9.237568 3.877856 7.363458
v -7.237568 0.025811 9.363458
v -7.237568 3.877856 9.363458
v -7.237568 0.025811 7.363458
v -7.237568 3.877856 7.363458
v -11.860622 0.025811 6.779896
v -11.860622 3.877856 6.779896
v -11.860622 0.025811 4.779897
v -11.860622 3.877856 4.779897
v -9.860622 0.025811 6.779896
v -9.860622 3.877856 6.779896
v -9.860622 0.025811 4.779897
v -9.860622 3.877856 4.779897
vt 0.375000 0.000000
vt 0.625000 0.000000
vt 0.625000 0.250000
vt 0.375000 0.250000
vt 0.625000 0.500000
vt 0.375000 0.500000
vt 0.625000 0.750000
vt 0.375000 0.750000
vt 0.625000 1.000000
vt 0.375000 1.000000
vt 0.125000 0.500000
vt 0.125000 0.750000
vt 0.875000 0.500000
vt 0.875000 0.750000
vt 0.000000 0.000000
vt 0.000000 0.000000
vt 0.000000 0.000000
vt 0.000000 0.000000
vt 0.000000 0.000000
vt 0.000000 0.000000
vt 0.000000 0.000000
vt 0.000000 0.000000
vt 0.000000 0.000000
vt 1.000000 0.000000
vt 1.000000 1.000000
vt 0.000000 1.000000
vt 0.375000 0.000000
vt 0.625000 0.000000
vt 0.625000 0.250000
vt 0.375000 0.250000
vt 0.625000 0.500000
vt 0.375000 0.500000
vt 0.625000 0.750000
vt 0.375000 0.750000
vt 0.625000 1.000000
vt 0.375000 1.000000
vt 0.125000 0.500000
vt 0.125000 0.750000
vt 0.875000 0.500000
vt 0.875000 0.750000
vt 0.000000 0.000000
vt 0.000000 0.000000
vt 0.000000 0.000000
vt 0.000000 0.000000
vt 0.000000 0.000000
vt 0.000000 0.000000
vt 0.000000 0.000000
vt 0.000000 0.000000
vt 0.000000 0.000000
vt 0.000000 0.000000
vt 0.000000 0.000000
vt 0.000000 0.000000
vt 0.000000 0.000000
vt 0.000000 0.000000
vt 0.000000 0.000000
vt 0.000000 0.000000
vt 0.375000 0.000000
vt 0.625000 0.000000
vt 0.625000 0.250000
vt 0.375000 0.250000
vt 0.625000 0.500000
vt 0.375000 0.500000
vt 0.625000 0.750000
vt 0.375000 0.750000
vt 0.625000 1.000000
vt 0.375000 1.000000
vt 0.125000 0.500000
vt 0.125000 0.750000
vt 0.875000 0.500000
vt 0.875000 0.750000
vt 0.375000 0.000000
vt 0.625000 0.000000
vt 0.625000 0.250000
vt 0.375000 0.250000
vt 0.625000 0.500000
vt 0.375000 0.500000
vt 0.625000 0.750000
vt 0.375000 0.750000
vt 0.625000 1.000000
vt 0.375000 1.000000
vt 0.125000 0.500000
vt 0.125000 0.750000
vt 0.875000 0.500000
vt 0.875000 0.750000
vt 0.375000 0.000000
vt 0.625000 0.000000
vt 0.625000 0.250000
vt 0.375000 0.250000
vt 0.625000 0.500000
vt 0.375000 0.500000
vt 0.625000 0.750000
vt 0.375000 0.750000
vt 0.625000 1.000000
vt 0.375000 1.000000
vt 0.125000 0.500000
vt 0.125000 0.750000
vt 0.875000 0.500000
vt 0.875000 0.750000
vt 0.000000 0.000000
vt 0.000000 0.000000
vt 0.000000 0.000000
vt 0.000000 0.000000
vt 0.000000 0.000000
vt 0.000000 0.000000
vt 0.000000 0.000000
vt 0.000000 0.000000
vt 0.000000 0.000000
vt 0.000000 0.000000
vt 0.000000 0.000000
vt 0.000000 0.000000
vt 0.000000 0.000000
vt 0.000000 0.000000
vt 0.000000 0.000000
vt 0.000000 0.000000
vt 0.000000 0.000000
vt 0.000000 0.000000
vt 0.000000 0.000000
vt 0.000000 0.000000
vt 0.000000 0.000000
vt 0.000000 0.000000
vt 0.000000 0.000000
vt 0.000000 0.000000
vt 0.000000 0.000000
vt 0.000000 0.000000
vt 0.000000 0.000000
vt 0.000000 0.000000
vt 0.000000 0.000000
vt 0.000000 0.000000
vt 0.000000 0.000000
vt 0.000000 0.000000
vt 0.000000 0.000000
vt 0.000000 0.000000
vt 0.000000 0.000000
vt 0.000000 0.000000
vt 0.000000 0.000000
vt 0.000000 0.000000
vt 0.000000 0.000000
vt 0.000000 0.000000
vt 0.000000 0.000000
vt 0.000000 0.000000
vt 0.000000 0.000000
vt 0.000000 0.000000
vt 0.000000 0.000000
vt 0.000000 0.000000
vt 0.000000 0.000000
vt 0.000000 0.000000
vt 0.375000 0.000000
vt 0.625000 0.000000
vt 0.625000 0.250000
vt 0.375000 0.250000
vt 0.625000 0.500000
vt 0.375000 0.500000
vt 0.625000 0.750000
vt 0.375000 0.750000
vt 0.625000 1.000000
vt 0.375000 1.000000
vt 0.125000 0.500000
vt 0.125000 0.750000
vt 0.875000 0.500000
vt 0.875000 0.750000
vt 0.000000 0.000000
vt 0.000000 0.000000
vt 0.000000 0.000000
vt 0.000000 0.000000
vt 0.000000 0.000000
vt 0.000000 0.000000
vt 0.000000 0.000000
vt 0.000000 0.000000
vt 0.000000 0.000000
vt 0.000000 0.000000
vt 0.000000 0.000000
vt 0.000000 0.000000
vt 0.000000 0.000000
vt 0.000000 0.000000
vt 0.000000 0.000000
vt 0.000000 0.000000
vt 0.000000 0.000000
vt 0.000000 0.000000
vt 0.000000 0.000000
vt 0.000000 0.000000
vt 0.000000 0.000000
vt 0.000000 0.000000
vt 0.000000 0.000000
vt 0.000000 0.000000
vt 0.375000 0.000000
vt 0.625000 0.000000
vt 0.625000 0.250000
vt 0.375000 0.250000
vt 0.625000 0.500000
vt 0.375000 0.500000
vt 0.625000 0.750000
vt 0.375000 0.750000
vt 0.625000 1.000000
vt 0.375000 1.000000
vt 0.125000 0.500000
vt 0.125000 0.750000
vt 0.875000 0.500000
vt 0.875000 0.750000
vt 0.375000 0.000000
vt 0.625000 0.000000
vt 0.625000 0.250000
vt 0.375000 0.250000
vt 0.625000 0.500000
vt 0.375000 0.500000
vt 0.625000 0.750000
vt 0.375000 0.750000
vt 0.625000 1.000000
vt 0.375000 1.000000
vt 0.125000 0.500000
vt 0.125000 0.750000
vt 0.875000 0.500000
vt 0.875000 0.750000
vt 0.375000 0.000000
vt 0.625000 0.000000
vt 0.625000 0.250000
vt 0.375000 0.250000
vt 0.625000 0.500000
vt 0.375000 0.500000
vt 0.625000 0.750000
vt 0.375000 0.750000
vt 0.625000 1.000000
vt 0.375000 1.000000
vt 0.125000 0.500000
vt 0.125000 0.750000
vt 0.875000 0.500000
vt 0.875000 0.750000
vt 0.375000 0.000000
vt 0.625000 0.000000
vt 0.625000 0.250000
vt 0.375000 0.250000
vt 0.625000 0.500000
vt 0.375000 0.500000
vt 0.625000 0.750000
vt 0.375000 0.750000
vt 0.625000 1.000000
vt 0.375000 1.000000
vt 0.125000 0.500000
vt 0.125000 0.750000
vt 0.875000 0.500000
vt 0.875000 0.750000
vt 0.375000 0.000000
vt 0.625000 0.000000
vt 0.625000 0.250000
vt 0.375000 0.250000
vt 0.625000 0.500000
vt 0.375000 0.500000
vt 0.625000 0.750000
vt 0.375000 0.750000
vt 0.625000 1.000000
vt 0.375000 1.000000
vt 0.125000 0.500000
vt 0.125000 0.750000
vt 0.875000 0.500000
vt 0.875000 0.750000
vt 0.000000 0.000000
vt 0.000000 0.000000
vt 0.000000 0.000000
vt 0.000000 0.000000
vt 0.000000 0.000000
vt 0.000000 0.000000
vt 0.000000 0.000000
vt 0.000000 0.000000
vt 0.000000 0.000000
vt 0.000000 0.000000
vt 0.000000 0.000000
vt 0.000000 0.000000
vt 0.000000 0.000000
vt 0.000000 0.000000
vt 0.000000 0.000000
vt 0.000000 0.000000
vt 0.375000 0.000000
vt 0.625000 0.000000
vt 0.625000 0.250000
vt 0.375000 0.250000
vt 0.625000 0.500000
vt 0.375000 0.500000
vt 0.625000 0.750000
vt 0.375000 0.750000
vt 0.625000 1.000000
vt 0.375000 1.000000
vt 0.125000 0.500000
vt 0.125000 0.750000
vt 0.875000 0.500000
vt 0.875000 0.750000
vt 0.375000 0.000000
vt 0.625000 0.000000
vt 0.625000 0.250000
vt 0.375000 0.250000
vt 0.625000 0.500000
vt 0.375000 0.500000
vt 0.625000 0.750000
vt 0.375000 0.750000
vt 0.625000 1.000000
vt 0.375000 1.000000
vt 0.125000 0.500000
vt 0.125000 0.750000
vt 0.875000 0.500000
vt 0.875000 0.750000
vt 0.375000 0.000000
vt 0.625000 0.000000
vt 0.625000 0.250000
vt 0.375000 0.250000
vt 0.625000 0.500000
vt 0.375000 0.500000
vt 0.625000 0.750000
vt 0.375000 0.750000
vt 0.625000 1.000000
vt 0.375000 1.000000
vt 0.125000 0.500000
vt 0.125000 0.750000
vt 0.875000 0.500000
vt 0.875000 0.750000
vn -1.0000 0.0000 0.0000
vn 0.0000 0.0000 -1.0000
vn 1.0000 0.0000 0.0000
vn 0.0000 0.0000 1.0000
vn 0.0000 -1.0000 0.0000
vn 0.0000 1.0000 0.0000
usemtl Material
s off
f 1/1/1 2/2/1 4/3/1 3/4/1
f 3/4/2 4/3/2 8/5/2 7/6/2
f 7/6/3 8/5/3 6/7/3 5/8/3
f 5/8/4 6/7/4 2/9/4 1/10/4
f 3/11/5 7/6/5 5/8/5 1/12/5
f 8/5/6 4/13/6 2/14/6 6/7/6
f 9/15/6 13/16/6 15/17/6 11/18/6
f 12/19/4 11/18/4 15/17/4 16/20/4
f 16/20/1 15/17/1 13/16/1 14/21/1
f 14/21/5 10/22/5 12/19/5 16/20/5
f 10/22/3 9/15/3 11/18/3 12/19/3
f 14/21/2 13/16/2 9/15/2 10/22/2
f 17/23/6 18/24/6 20/25/6 19/26/6
f 21/27/1 22/28/1 24/29/1 23/30/1
f 23/30/2 24/29/2 28/31/2 27/32/2
f 27/32/3 28/31/3 26/33/3 25/34/3
f 25/34/4 26/33/4 22/35/4 21/36/4
f 23/37/5 27/32/5 25/34/5 21/38/5
f 28/31/6 24/39/6 22/40/6 26/33/6
usemtl Material.001
f 29/41/6 33/42/6 35/43/6 31/44/6
f 32/45/4 31/44/4 35/43/4 36/46/4
f 36/46/1 35/43/1 33/42/1 34/47/1
f 34/47/5 30/48/5 32/45/5 36/46/5
f 30/48/3 29/41/3 31/44/3 32/45/3
f 34/47/2 33/42/2 29/41/2 30/48/2
usemtl Material.002
f 37/49/6 41/50/6 43/51/6 39/52/6
f 40/53/4 39/52/4 43/51/4 44/54/4
f 44/54/1 43/51/1 41/50/1 42/55/1
f 42/55/5 38/56/5 40/53/5 44/54/5
f 38/56/3 37/49/3 39/52/3 40/53/3
f 42/55/2 41/50/2 37/49/2 38/56/2
f 45/57/1 46/58/1 48/59/1 47/60/1
f 47/60/2 48/59/2 52/61/2 51/62/2
f 51/62/3 52/61/3 50/63/3 49/64/3
f 49/64/4 50/63/4 46/65/4 45/66/4
f 47/67/5 51/62/5 49/64/5 45/68/5
f 52/61/6 48/69/6 46/70/6 50/63/6
f 53/71/1 54/72/1 56/73/1 55/74/1
f 55/74/2 56/73/2 60/75/2 59/76/2
f 59/76/3 60/75/3 58/77/3 57/78/3
f 57/78/4 58/77/4 54/79/4 53/80/4
f 55/81/5 59/76/5 57/78/5 53/82/5
f 60/75/6 56/83/6 54/84/6 58/77/6
f 61/85/1 62/86/1 64/87/1 63/88/1
f 63/88/2 64/87/2 68/89/2 67/90/2
f 67/90/3 68/89/3 66/91/3 65/92/3
f 65/92/4 66/91/4 62/93/4 61/94/4
f 63/95/5 67/90/5 65/92/5 61/96/5
f 68/89/6 64/97/6 62/98/6 66/91/6
usemtl Material.003
f 69/99/6 73/100/6 75/101/6 71/102/6
f 72/103/4 71/102/4 75/101/4 76/104/4
f 76/104/1 75/101/1 73/100/1 74/105/1
f 74/105/5 70/106/5 72/103/5 76/104/5
f 70/106/3 69/99/3 71/102/3 72/103/3
f 74/105/2 73/100/2 69/99/2 70/106/2
usemtl Material.004
f 77/107/6 81/108/6 83/109/6 79/110/6
f 80/111/4 79/110/4 83/109/4 84/112/4
f 84/112/1 83/109/1 81/108/1 82/113/1
f 82/113/5 78/114/5 80/111/5 84/112/5
f 78/114/3 77/107/3 79/110/3 80/111/3
f 82/113/2 81/108/2 77/107/2 78/114/2
usemtl Material.005
f 85/115/6 89/116/6 91/117/6 87/118/6
f 88/119/4 87/118/4 91/117/4 92/120/4
f 92/120/1 91/117/1 89/116/1 90/121/1
f 90/121/5 86/122/5 88/119/5 92/120/5
f 86/122/3 85/115/3 87/118/3 88/119/3
f 90/121/2 89/116/2 85/115/2 86/122/2
usemtl Material.006
f 93/123/6 97/124/6 99/125/6 95/126/6
f 96/127/4 95/126/4 99/125/4 100/128/4
f 100/128/1 99/125/1 97/124/1 98/129/1
f 98/129/5 94/130/5 96/127/5 100/128/5
f 94/130/3 93/123/3 95/126/3 96/127/3
f 98/129/2 97/124/2 93/123/2 94/130/2
usemtl Material.007
f 101/131/6 105/132/6 107/133/6 103/134/6
f 104/135/4 103/134/4 107/133/4 108/136/4
f 108/136/1 107/133/1 105/132/1 106/137/1
f 106/137/5 102/138/5 104/135/5 108/136/5
f 102/138/3 101/131/3 103/134/3 104/135/3
f 106/137/2 105/132/2 101/131/2 102/138/2
usemtl Material.008
f 109/139/6 113/140/6 115/141/6 111/142/6
f 112/143/4 111/142/4 115/141/4 116/144/4
f 116/144/1 115/141/1 113/140/1 114/145/1
f 114/145/5 110/146/5 112/143/5 116/144/5
f 110/146/3 109/139/3 111/142/3 112/143/3
f 114/145/2 113/140/2 109/139/2 110/146/2
f 117/147/1 118/148/1 120/149/1 119/150/1
f 119/150/2 120/149/2 124/151/2 123/152/2
f 123/152/3 124/151/3 122/153/3 121/154/3
f 121/154/4 122/153/4 118/155/4 117/156/4
f 119/157/5 123/152/5 121/154/5 117/158/5
f 124/151/6 120/159/6 118/160/6 122/153/6
usemtl Material.009
f 125/161/6 129/162/6 131/163/6 127/164/6
f 128/165/4 127/164/4 131/163/4 132/166/4
f 132/166/1 131/163/1 129/162/1 130/167/1
f 130/167/5 126/168/5 128/165/5 132/166/5
f 126/168/3 125/161/3 127/164/3 128/165/3
f 130/167/2 129/162/2 125/161/2 126/168/2
usemtl Material.010
f 133/169/6 137/170/6 139/171/6 135/172/6
f 136/173/4 135/172/4 139/171/4 140/174/4
f 140/174/1 139/171/1 137/170/1 138/175/1
f 138/175/5 134/176/5 136/173/5 140/174/5
f 134/176/3 133/169/3 135/172/3 136/173/3
f 138/175/2 137/170/2 133/169/2 134/176/2
usemtl Material.011
f 141/177/6 145/178/6 147/179/6 143/180/6
f 144/181/4 143/180/4 147/179/4 148/182/4
f 148/182/1 147/179/1 145/178/1 146/183/1
f 146/183/5 142/184/5 144/181/5 148/182/5
f 142/184/3 141/177/3 143/180/3 144/181/3
f 146/183/2 145/178/2 141/177/2 142/184/2
f 149/185/1 150/186/1 152/187/1 151/188/1
f 151/188/2 152/187/2 156/189/2 155/190/2
f 155/190/3 156/189/3 154/191/3 153/192/3
f 153/192/4 154/191/4 150/193/4 149/194/4
f 151/195/5 155/190/5 153/192/5 149/196/5
f 156/189/6 152/197/6 150/198/6 154/191/6
f 157/199/1 158/200/1 160/201/1 159/202/1
f 159/202/2 160/201/2 164/203/2 163/204/2
f 163/204/3 164/203/3 162/205/3 161/206/3
f 161/206/4 162/205/4 158/207/4 157/208/4
f 159/209/5 163/204/5 161/206/5 157/210/5
f 164/203/6 160/211/6 158/212/6 162/205/6
f 165/213/1 166/214/1 168/215/1 167/216/1
f 167/216/2 168/215/2 172/217/2 171/218/2
f 171/218/3 172/217/3 170/219/3 169/220/3
f 169/220/4 170/219/4 166/221/4 165/222/4
f 167/223/5 171/218/5 169/220/5 165/224/5
f 172/217/6 168/225/6 166/226/6 170/219/6
f 173/227/1 174/228/1 176/229/1 175/230/1
f 175/230/2 176/229/2 180/231/2 179/232/2
f 179/232/3 180/231/3 178/233/3 177/234/3
f 177/234/4 178/233/4 174/235/4 173/236/4
f 175/237/5 179/232/5 177/234/5 173/238/5
f 180/231/6 176/239/6 174/240/6 178/233/6
f 181/241/1 182/242/1 184/243/1 183/244/1
f 183/244/2 184/243/2 188/245/2 187/246/2
f 187/246/3 188/245/3 186/247/3 185/248/3
f 185/248/4 186/247/4 182/249/4 181/250/4
f 183/251/5 187/246/5 185/248/5 181/252/5
f 188/245/6 184/253/6 182/254/6 186/247/6
usemtl Material.012
f 189/255/6 193/256/6 195/257/6 191/258/6
f 192/259/4 191/258/4 195/257/4 196/260/4
f 196/260/1 195/257/1 193/256/1 194/261/1
f 194/261/5 190/262/5 192/259/5 196/260/5
f 190/262/3 189/255/3 191/258/3 192/259/3
f 194/261/2 193/256/2 189/255/2 190/262/2
usemtl Material.013
f 197/263/6 201/264/6 203/265/6 199/266/6
f 200/267/4 199/266/4 203/265/4 204/268/4
f 204/268/1 203/265/1 201/264/1 202/269/1
f 202/269/5 198/270/5 200/267/5 204/268/5
f 198/270/3 197/263/3 199/266/3 200/267/3
f 202/269/2 201/264/2 197/263/2 198/270/2
f 205/271/1 206/272/1 208/273/1 207/274/1
f 207/274/2 208/273/2 212/275/2 211/276/2
f 211/276/3 212/275/3 210/277/3 209/278/3
f 209/278/4 210/277/4 206/279/4 205/280/4
f 207/281/5 211/276/5 209/278/5 205/282/5
f 212/275/6 208/283/6 206/284/6 210/277/6
f 213/285/1 214/286/1 216/287/1 215/288/1
f 215/288/2 216/287/2 220/289/2 219/290/2
f 219/290/3 220/289/3 218/291/3 217/292/3
f 217/292/4 218/291/4 214/293/4 213/294/4
f 215/295/5 219/290/5 217/292/5 213/296/5
f 220/289/6 216/297/6 214/298/6 218/291/6
f 221/299/1 222/300/1 224/301/1 223/302/1
f 223/302/2 224/301/2 228/303/2 227/304/2
f 227/304/3 228/303/3 226/305/3 225/306/3
f 225/306/4 226/305/4 222/307/4 221/308/4
f 223/309/5 227/304/5 225/306/5 221/310/5
f 228/303/6 224/311/6 222/312/6 226/305/6
